solid Silinge_Holder_SidePanel
   facet normal 0.000000e+00 1.000000e+00 -0.000000e+00
      outer loop
         vertex 1.500000e+01 4.500000e+01 0.000000e+00
         vertex 0.000000e+00 4.500000e+01 0.000000e+00
         vertex 1.500000e+01 4.500000e+01 2.500000e+00
      endloop
   endfacet
   facet normal 0.000000e+00 1.000000e+00 0.000000e+00
      outer loop
         vertex 1.500000e+01 4.500000e+01 2.500000e+00
         vertex 0.000000e+00 4.500000e+01 0.000000e+00
         vertex 0.000000e+00 4.500000e+01 2.500000e+00
      endloop
   endfacet
   facet normal 4.226183e-01 9.063078e-01 -0.000000e+00
      outer loop
         vertex 7.844155e+01 1.541672e+01 0.000000e+00
         vertex 1.500000e+01 4.500000e+01 0.000000e+00
         vertex 7.844155e+01 1.541672e+01 2.500000e+00
      endloop
   endfacet
   facet normal 4.226183e-01 9.063078e-01 0.000000e+00
      outer loop
         vertex 7.844155e+01 1.541672e+01 2.500000e+00
         vertex 1.500000e+01 4.500000e+01 0.000000e+00
         vertex 1.500000e+01 4.500000e+01 2.500000e+00
      endloop
   endfacet
   facet normal 1.000000e+00 0.000000e+00 0.000000e+00
      outer loop
         vertex 7.844155e+01 0.000000e+00 0.000000e+00
         vertex 7.844155e+01 1.541672e+01 0.000000e+00
         vertex 7.844155e+01 0.000000e+00 2.500000e+00
      endloop
   endfacet
   facet normal 1.000000e+00 -0.000000e+00 0.000000e+00
      outer loop
         vertex 7.844155e+01 0.000000e+00 2.500000e+00
         vertex 7.844155e+01 1.541672e+01 0.000000e+00
         vertex 7.844155e+01 1.541672e+01 2.500000e+00
      endloop
   endfacet
   facet normal 0.000000e+00 -1.000000e+00 0.000000e+00
      outer loop
         vertex 0.000000e+00 0.000000e+00 0.000000e+00
         vertex 7.844155e+01 0.000000e+00 0.000000e+00
         vertex 0.000000e+00 0.000000e+00 2.500000e+00
      endloop
   endfacet
   facet normal 0.000000e+00 -1.000000e+00 0.000000e+00
      outer loop
         vertex 0.000000e+00 0.000000e+00 2.500000e+00
         vertex 7.844155e+01 0.000000e+00 0.000000e+00
         vertex 7.844155e+01 0.000000e+00 2.500000e+00
      endloop
   endfacet
   facet normal -1.000000e+00 0.000000e+00 0.000000e+00
      outer loop
         vertex 0.000000e+00 4.500000e+01 0.000000e+00
         vertex 0.000000e+00 0.000000e+00 0.000000e+00
         vertex 0.000000e+00 4.500000e+01 2.500000e+00
      endloop
   endfacet
   facet normal -1.000000e+00 -0.000000e+00 0.000000e+00
      outer loop
         vertex 0.000000e+00 4.500000e+01 2.500000e+00
         vertex 0.000000e+00 0.000000e+00 0.000000e+00
         vertex 0.000000e+00 0.000000e+00 2.500000e+00
      endloop
   endfacet
   facet normal -0.000000e+00 -0.000000e+00 -1.000000e+00
      outer loop
         vertex 7.844155e+01 1.541672e+01 0.000000e+00
         vertex 7.844155e+01 0.000000e+00 0.000000e+00
         vertex 1.500000e+01 4.500000e+01 0.000000e+00
      endloop
   endfacet
   facet normal 0.000000e+00 -0.000000e+00 -1.000000e+00
      outer loop
         vertex 1.500000e+01 4.500000e+01 0.000000e+00
         vertex 7.844155e+01 0.000000e+00 0.000000e+00
         vertex 0.000000e+00 0.000000e+00 0.000000e+00
      endloop
   endfacet
   facet normal -0.000000e+00 0.000000e+00 -1.000000e+00
      outer loop
         vertex 1.500000e+01 4.500000e+01 0.000000e+00
         vertex 0.000000e+00 0.000000e+00 0.000000e+00
         vertex 0.000000e+00 4.500000e+01 0.000000e+00
      endloop
   endfacet
   facet normal -0.000000e+00 0.000000e+00 1.000000e+00
      outer loop
         vertex 0.000000e+00 4.500000e+01 2.500000e+00
         vertex 0.000000e+00 0.000000e+00 2.500000e+00
         vertex 1.500000e+01 4.500000e+01 2.500000e+00
      endloop
   endfacet
   facet normal 0.000000e+00 0.000000e+00 1.000000e+00
      outer loop
         vertex 1.500000e+01 4.500000e+01 2.500000e+00
         vertex 0.000000e+00 0.000000e+00 2.500000e+00
         vertex 7.844155e+01 0.000000e+00 2.500000e+00
      endloop
   endfacet
   facet normal 0.000000e+00 0.000000e+00 1.000000e+00
      outer loop
         vertex 1.500000e+01 4.500000e+01 2.500000e+00
         vertex 7.844155e+01 0.000000e+00 2.500000e+00
         vertex 7.844155e+01 1.541672e+01 2.500000e+00
      endloop
   endfacet
endsolid